<?xml version="1.0" encoding="utf-8"?><!-- Uploaded to: SVG Repo, www.svgrepo.com, Generator: SVG Repo Mixer Tools -->
<svg width="800px" height="800px" viewBox="0 0 48 48" fill="none" xmlns="http://www.w3.org/2000/svg">
<g id="pause">
<g id="pause_2">
<path id="Combined Shape" fill-rule="evenodd" clip-rule="evenodd" d="M28 11.0418V12.0098C28 12.5621 27.5523 13.0098 27 13.0098C26.4477 13.0098 26 12.5621 26 12.0098V11.0418C26 9.36553 27.3657 7.99982 29.042 7.99982H30.958C32.6343 7.99982 34 9.36553 34 11.0418V36.9598C34 38.6346 32.6338 39.9998 30.958 39.9998H29.042C27.3662 39.9998 26 38.6346 26 36.9598V16.0018C26 15.4495 26.4477 15.0018 27 15.0018C27.5523 15.0018 28 15.4495 28 16.0018V36.9598C28 37.5297 28.4704 37.9998 29.042 37.9998H30.958C31.5296 37.9998 32 37.5297 32 36.9598V11.0418C32 10.4701 31.5297 9.99982 30.958 9.99982H29.042C28.4703 9.99982 28 10.4701 28 11.0418ZM16 36.958C16 37.5297 16.4703 38 17.042 38C17.5943 38 18.042 38.4477 18.042 39C18.042 39.5523 17.5943 40 17.042 40C15.3657 40 14 38.6343 14 36.958V11.042C14 9.36573 15.3657 8.00002 17.042 8.00002H18.958C20.6343 8.00002 22 9.36573 22 11.042V36.958C22 37.5103 21.5523 37.958 21 37.958C20.4477 37.958 20 37.5103 20 36.958V11.042C20 10.4703 19.5297 10 18.958 10H17.042C16.4703 10 16 10.4703 16 11.042V36.958Z" fill="#000000"/>
</g>
</g>
</svg>